<svg width="26" height="30" viewBox="0 0 26 30" fill="none" xmlns="http://www.w3.org/2000/svg">
<path d="M17.5094 3.42124C17.5094 3.42124 17.1804 3.51558 16.6398 3.68066C16.5458 3.37407 16.4048 3.02032 16.2168 2.64298C15.6057 1.46379 14.6891 0.827035 13.608 0.827035C13.5375 0.827035 13.467 0.827035 13.373 0.850619C13.3495 0.803451 13.3025 0.779868 13.279 0.7327C12.8089 0.213859 12.1978 -0.0219779 11.4693 0.00160577C10.0591 0.0487732 8.64896 1.06287 7.52083 2.87882C6.72174 4.15234 6.11068 5.75603 5.94616 7.00596C4.32448 7.50122 3.19635 7.85498 3.17285 7.87856C2.35026 8.13798 2.32676 8.16156 2.23275 8.93983C2.16224 9.52942 0 26.1323 0 26.1323L17.768 29.2218V3.39766C17.6269 3.39766 17.5564 3.42124 17.5094 3.42124ZM13.3965 4.69476C12.4564 4.97776 11.4223 5.30794 10.4116 5.61452C10.6937 4.50609 11.2577 3.39766 11.9158 2.66656C12.1743 2.40714 12.5269 2.10055 12.9264 1.91188C13.326 2.7609 13.42 3.9165 13.3965 4.69476ZM11.4693 0.968537C11.7983 0.968537 12.0803 1.03929 12.3154 1.18079C11.9393 1.36946 11.5633 1.67605 11.2107 2.0298C10.3176 2.99673 9.63606 4.50609 9.35403 5.9447C8.50794 6.20412 7.66185 6.46354 6.88626 6.69937C7.40332 4.43534 9.30703 1.0157 11.4693 0.968537ZM8.74297 13.9396C8.83698 15.4489 12.8089 15.7791 13.0439 19.3402C13.2085 22.1467 11.5633 24.057 9.18952 24.1985C6.3222 24.3871 4.74752 22.6891 4.74752 22.6891L5.35859 20.0949C5.35859 20.0949 6.93327 21.2977 8.20241 21.2033C9.025 21.1562 9.33053 20.4722 9.30703 20.0006C9.18952 18.0195 5.94616 18.1375 5.73463 14.8829C5.54661 12.1472 7.33281 9.38791 11.2812 9.12849C12.8089 9.03416 13.5845 9.4115 13.5845 9.4115L12.6914 12.8075C12.6914 12.8075 11.6808 12.3359 10.4822 12.4302C8.74297 12.5481 8.71946 13.6566 8.74297 13.9396ZM14.3366 4.41176C14.3366 3.70425 14.2426 2.69015 13.9135 1.84113C14.9947 2.05339 15.5117 3.25616 15.7467 3.98725C15.3237 4.10517 14.8536 4.24667 14.3366 4.41176Z" fill="white"/>
<path d="M18.3081 29.1747L25.6879 27.3352C25.6879 27.3352 22.5151 5.80326 22.4916 5.66176C22.4681 5.52025 22.3506 5.42592 22.233 5.42592C22.1155 5.42592 20.0473 5.37875 20.0473 5.37875C20.0473 5.37875 18.7782 4.1524 18.3081 3.68073V29.1747Z" fill="white"/>
</svg>
