<svg width="76" height="25" viewBox="0 0 76 25" fill="none" xmlns="http://www.w3.org/2000/svg">
<path d="M7.21663 11.6517C6.32353 11.1564 5.85348 10.7555 5.85348 10.1895C5.85348 9.4584 6.48805 9.01031 7.49866 9.01031C8.67379 9.01031 9.70791 9.50556 9.70791 9.50556L10.5305 6.98211C10.5305 6.98211 9.77841 6.39252 7.54567 6.39252C4.44333 6.39252 2.28108 8.18488 2.28108 10.6847C2.28108 12.0998 3.2917 13.1846 4.63134 13.9629C5.71246 14.5761 6.08851 15.0241 6.08851 15.6609C6.08851 16.3448 5.54795 16.8873 4.53734 16.8873C3.03317 16.8873 1.62302 16.109 1.62302 16.109L0.753418 18.6325C0.753418 18.6325 2.06956 19.505 4.25531 19.505C7.45166 19.505 9.73141 17.9249 9.73141 15.0949C9.77842 13.5384 8.60328 12.4535 7.21663 11.6517Z" fill="white"/>
<path d="M19.9549 6.34533C18.3803 6.34533 17.1581 7.10001 16.1945 8.23203L16.1475 8.20844L17.5107 1.039H13.9383L10.4834 19.2692H14.0323L15.2074 13.0431C15.6775 10.6847 16.8761 9.24613 18.0042 9.24613C18.8033 9.24613 19.1088 9.78855 19.1088 10.5668C19.1088 11.0621 19.0618 11.6517 18.9443 12.1469L17.6047 19.2928H21.1536L22.5402 11.9347C22.7047 11.1564 22.7988 10.2366 22.7988 9.59988C22.8458 7.5481 21.8116 6.34533 19.9549 6.34533Z" fill="white"/>
<path d="M30.884 6.34534C26.6065 6.34534 23.7627 10.2131 23.7627 14.5289C23.7627 17.2882 25.4549 19.5286 28.6512 19.5286C32.8582 19.5286 35.6785 15.7552 35.6785 11.3451C35.702 8.77446 34.2214 6.34534 30.884 6.34534ZM29.1448 16.7693C27.9227 16.7693 27.4291 15.7316 27.4291 14.4345C27.4291 12.3828 28.4867 9.05746 30.4139 9.05746C31.6831 9.05746 32.0826 10.1423 32.0826 11.2036C32.0826 13.4204 31.025 16.7693 29.1448 16.7693Z" fill="white"/>
<path d="M44.7971 6.34534C42.3998 6.34534 41.0366 8.46787 41.0366 8.46787H40.9896L41.2012 6.55759H38.0518C37.8873 7.85469 37.6053 9.81214 37.3232 11.2979L34.8555 24.3161H38.4044L39.3915 19.0334H39.462C39.462 19.0334 40.1906 19.505 41.5537 19.505C45.7372 19.505 48.4635 15.2128 48.4635 10.8734C48.4635 8.49145 47.4059 6.34534 44.7971 6.34534ZM41.4127 16.8401C40.4961 16.8401 39.9555 16.3212 39.9555 16.3212L40.5431 12.9959C40.9661 10.7791 42.1178 9.2933 43.3399 9.2933C44.421 9.2933 44.7501 10.3074 44.7501 11.2507C44.7501 13.5384 43.3869 16.8401 41.4127 16.8401Z" fill="white"/>
<path d="M53.5403 1.22766C52.4122 1.22766 51.4956 2.12384 51.4956 3.30303C51.4956 4.36429 52.1537 5.09539 53.1643 5.09539H53.2113C54.3159 5.09539 55.2795 4.34071 55.303 3.02002C55.3265 1.95876 54.6215 1.22766 53.5403 1.22766Z" fill="white"/>
<path d="M48.5576 19.2692H52.13L54.5508 6.62836H50.9549L48.5576 19.2692Z" fill="white"/>
<path d="M63.5759 6.60475H61.1081L61.2257 6.01516C61.4372 4.78881 62.1423 3.70396 63.3409 3.70396C63.9755 3.70396 64.469 3.89263 64.469 3.89263L65.1741 1.10975C65.1741 1.10975 64.563 0.803162 63.2469 0.803162C61.9777 0.803162 60.7321 1.15692 59.7685 1.98235C58.5464 3.02003 57.9823 4.5058 57.7003 6.01516L57.6062 6.60475H55.9611L55.444 9.29329H57.0892L55.209 19.2692H58.7579L60.6381 9.29329H63.0824L63.5759 6.60475Z" fill="white"/>
<path d="M72.131 6.62836C72.131 6.62836 69.8982 12.2413 68.9111 15.3072H68.8641C68.7936 14.3166 67.9945 6.62836 67.9945 6.62836H64.2576L66.3963 18.2315C66.4433 18.491 66.4198 18.656 66.3258 18.8211C65.9028 19.623 65.2212 20.4012 64.3986 20.9672C63.7405 21.4625 62.9884 21.7691 62.4009 21.9813L63.388 25.0001C64.1166 24.835 65.5972 24.2454 66.8664 23.0662C68.4881 21.5332 69.9922 19.1985 71.5199 15.9911L75.8679 6.62836H72.131Z" fill="white"/>
</svg>
